<?xml version="1.0" encoding="UTF-8"?>
<svg width="22px" height="11px" viewBox="0 0 22 11" version="1.1" xmlns="http://www.w3.org/2000/svg" xmlns:xlink="http://www.w3.org/1999/xlink">
    <!-- Generator: Sketch 44.1 (41455) - http://www.bohemiancoding.com/sketch -->
    <title>arrow--blue-alt</title>
    <desc>Created with Sketch.</desc>
    <defs></defs>
    <g id="Symbols" stroke="none" stroke-width="1" fill="none" fill-rule="evenodd">
        <g id="arrow--blue-alt" fill="#1827F3">
            <path d="M9.63824938,4.734 C10.4288457,4.734 10.8960093,4.75396425 11.0397541,4.79389336 C11.1834989,4.83382247 11.3432129,4.93364374 11.518901,5.09336018 C11.7744473,5.33293482 11.86229,5.56052732 11.7824318,5.77614451 C11.7025735,5.99176169 11.4869596,6.06762586 11.1355834,6.00373929 L9.62627071,6.12352601 C8.42839747,6.20338423 5.80908728,6.24331274 1.76826155,6.24331274 C1.44882868,6.24331274 1.16932912,6.20338423 0.929754472,6.12352601 C0.594349965,6.12352601 0.362764612,6.01172619 0.234991467,5.78812318 C0.0593033917,5.54854853 0.0353462862,5.3968202 0.163119432,5.33293363 C0.530467225,5.09335898 2.00382921,4.93364494 4.58324959,4.85378673 C7.16266996,4.77392851 8.84765304,4.734 9.63824938,4.734 Z" id="—"></path>
            <path d="M14.2054018,10.5272751 C14.2529263,10.3054942 14.3440135,10.1352007 14.4786662,10.0163895 C14.613319,9.89757827 14.8232156,9.73520538 15.1083625,9.52926594 C15.6786564,9.06986258 16.4786399,8.3886885 17.5083371,7.48572327 C18.4271438,6.64612402 18.9538656,6.11148158 19.0885183,5.8817799 C19.223171,5.65207822 19.2746551,5.44218156 19.2429721,5.25208361 C19.0687157,4.84020474 18.6766445,4.33724481 18.066747,3.74318874 C17.4568494,3.14913266 16.6529056,2.57488708 15.6548914,2.02043474 C14.7836092,1.59271437 14.2766889,1.1887623 14.1341154,0.808566417 C14.0707495,0.618468474 14.1578764,0.491738413 14.3954988,0.428372432 C15.0133171,0.365006451 15.6311262,0.475895254 16.2489445,0.761042169 C16.5816159,0.951140111 16.8192348,1.07787017 16.9618082,1.14123615 C17.1043817,1.20460213 17.2390324,1.27192748 17.3657643,1.34321421 C17.4924963,1.41450094 17.5875438,1.47390565 17.6509098,1.52143014 C17.7142758,1.56895462 17.7855614,1.62439903 17.8647689,1.68776501 C18.0231839,1.79865547 18.1657552,1.93330616 18.2924872,2.09172111 C19.1479279,2.58280747 19.8449432,3.31942595 20.3835541,4.30159865 L20.953845,5.29960786 L21.1201799,6.01247158 C20.993448,6.04415457 20.7479085,6.21048778 20.3835541,6.51147619 C20.0508827,6.92335506 19.1796135,7.7312592 17.7697204,8.93521284 C17.2311096,9.33125022 16.6449831,9.84609109 16.0113232,10.4797509 C15.6944933,10.8282638 15.488557,11.0025176 15.393508,11.0025176 C15.2667761,11.0500421 15.1440063,11.0342009 15.0251951,10.9549934 C14.9063839,10.8757859 14.7836141,10.8203415 14.6568822,10.7886585 C14.3717353,10.7252925 14.2212433,10.6381656 14.2054018,10.5272751 Z" id="›"></path>
        </g>
    </g>
</svg>