<?xml version="1.0" encoding="UTF-8"?>
<svg width="12px" height="12px" viewBox="0 0 12 12" version="1.1" xmlns="http://www.w3.org/2000/svg" xmlns:xlink="http://www.w3.org/1999/xlink">
    <!-- Generator: Sketch 43.2 (39069) - http://www.bohemiancoding.com/sketch -->
    <title>close--alt</title>
    <desc>Created with Sketch.</desc>
    <defs></defs>
    <g id="Symbols" stroke="none" stroke-width="1" fill="none" fill-rule="evenodd">
        <g id="close--alt" fill="#1827F3">
            <path d="M2.22219997,3.45200034 C2.14419958,3.32199969 2.10519997,3.09666861 2.10519997,2.77600034 C2.10519997,2.45533207 2.20919893,2.24300086 2.41719997,2.13900034 C2.62520101,2.03499982 2.85053209,2.13899878 3.09319997,2.45100034 L4.34119997,3.51700034 L5.92719997,5.02500034 C7.46987435,3.39565886 8.33219906,2.52466757 8.51419997,2.41200034 C8.69620088,2.29933311 8.9475317,2.24300034 9.26819997,2.24300034 C9.58886824,2.24300034 9.80119945,2.35133259 9.90519997,2.56800034 C10.0092005,2.78466809 9.90520153,3.00566588 9.59319997,3.23100034 C8.83052949,4.11500476 8.2628685,4.75199839 7.89019997,5.14200034 C7.51753144,5.53200229 7.22720101,5.83966588 7.01919997,6.06500034 L8.99519997,7.98900034 C9.23786785,8.23166822 9.41986603,8.47433246 9.54119997,8.71700034 C9.80120127,8.97700164 9.88786707,9.24566562 9.80119997,9.52300034 C9.78386655,9.67900112 9.74920023,9.79166666 9.69719997,9.86100034 C9.64519971,9.93033402 9.56720049,9.94766718 9.46319997,9.91300034 C9.28986577,9.8783335 8.95186915,9.661669 8.44919997,9.26300034 C7.98119763,8.9683322 7.15787253,8.26633922 5.97919997,7.15700034 C4.55785953,8.66500788 3.67386837,9.50566614 3.32719997,9.67900034 C3.06719867,9.93900164 2.79853469,10.0256674 2.52119997,9.93900034 C2.36519919,9.92166692 2.25253365,9.8870006 2.18319997,9.83500034 C2.11386629,9.78300008 2.08786655,9.70500086 2.10519997,9.60100034 C2.15720023,9.42766614 2.38253131,9.08966952 2.78119997,8.58700034 C3.05853469,8.15366484 3.75186109,7.33900632 4.86119997,6.14300034 L2.83319997,4.14100034 C2.50386499,3.81166536 2.30020036,3.58200099 2.22219997,3.45200034 Z" id="×"></path>
        </g>
    </g>
</svg>