<svg width="22" height="11" viewBox="0 0 22 11" xmlns="http://www.w3.org/2000/svg"><title>arrow--blue-alt</title><g fill="#1827F3" fill-rule="evenodd"><path d="M9.638 4.734c.79 0 1.258.02 1.402.06.143.04.303.14.479.3.255.239.343.467.263.682-.08.216-.295.292-.646.228l-1.51.12c-1.198.08-3.817.12-7.858.12-.32 0-.599-.04-.838-.12-.336 0-.567-.112-.695-.336-.176-.24-.2-.391-.072-.455.367-.24 1.84-.4 4.42-.48 2.58-.08 4.265-.119 5.055-.119zM14.205 10.527a.912.912 0 0 1 .274-.51c.134-.12.344-.282.63-.488.57-.46 1.37-1.14 2.4-2.043.918-.84 1.445-1.375 1.58-1.604.134-.23.186-.44.154-.63-.174-.412-.566-.915-1.176-1.509-.61-.594-1.414-1.168-2.412-1.723-.871-.427-1.378-.831-1.52-1.211-.064-.19.023-.317.26-.38.618-.064 1.236.047 1.854.332.333.19.57.317.713.38a4.8 4.8 0 0 1 .404.202 2.747 2.747 0 0 1 .499.345c.158.11.3.245.427.404.856.49 1.553 1.227 2.092 2.21l.57.998.166.712c-.127.032-.372.198-.736.5-.333.411-1.204 1.22-2.614 2.423-.539.396-1.125.911-1.759 1.545-.317.348-.522.523-.617.523a.386.386 0 0 1-.369-.048 1.177 1.177 0 0 0-.368-.166c-.285-.064-.436-.15-.452-.262z"/></g></svg>