<svg width="12" height="12" viewBox="0 0 12 12" xmlns="http://www.w3.org/2000/svg"><title>close--alt</title><path d="M2.222 3.452c-.078-.13-.117-.355-.117-.676 0-.32.104-.533.312-.637.208-.104.434 0 .676.312l1.248 1.066 1.586 1.508c1.543-1.63 2.405-2.5 2.587-2.613.182-.113.434-.169.754-.169s.533.108.637.325c.104.217 0 .438-.312.663A56.273 56.273 0 0 1 7.89 5.142c-.372.39-.663.698-.87.923l1.975 1.924c.243.243.425.485.546.728.26.26.347.529.26.806-.017.156-.052.269-.104.338-.052.07-.13.087-.234.052-.173-.035-.511-.251-1.014-.65-.468-.295-1.291-.997-2.47-2.106-1.421 1.508-2.305 2.349-2.652 2.522-.26.26-.528.347-.806.26-.156-.017-.268-.052-.338-.104s-.095-.13-.078-.234c.052-.173.278-.511.676-1.014.278-.433.97-1.248 2.08-2.444L2.833 4.141c-.33-.33-.533-.559-.61-.689z" fill="#1827F3" fill-rule="evenodd"/></svg>